HIERARCHY
ROOT root
{
	OFFSET 0.000000 0.000000 0.000000
	CHANNELS 6 Xposition Yposition Zposition Zrotation Yrotation Xrotation
	JOINT lhip
	{
		OFFSET 0.058581 -0.082280 -0.017664
		CHANNELS 3 Zrotation Yrotation Xrotation
		JOINT lknee
		{
			OFFSET 0.043451 -0.386469 0.008037
			CHANNELS 3 Zrotation Yrotation Xrotation
			JOINT lankle
			{
				OFFSET -0.014790 -0.426874 -0.037428
				CHANNELS 3 Zrotation Yrotation Xrotation
				JOINT ltoe
				{
					OFFSET 0.041054 -0.060286 0.122042
					CHANNELS 3 Zrotation Yrotation Xrotation
					End Site
					{
						OFFSET 0.000000 0.000000 0.000000
					}
				}
			}
		}
	}
	JOINT rhip
	{
		OFFSET -0.060310 -0.090513 -0.013543
		CHANNELS 3 Zrotation Yrotation Xrotation
		JOINT rknee
		{
			OFFSET -0.043257 -0.383688 -0.004843
			CHANNELS 3 Zrotation Yrotation Xrotation
			JOINT rankle
			{
				OFFSET 0.019056 -0.420046 -0.034562
				CHANNELS 3 Zrotation Yrotation Xrotation
				JOINT rtoe
				{
					OFFSET -0.034840 -0.062106 0.130323
					CHANNELS 3 Zrotation Yrotation Xrotation
					End Site
					{
						OFFSET 0.000000 0.000000 0.000000
					}
				}
			}
		}
	}
	JOINT lowerback
	{
		OFFSET 0.004439 0.124404 -0.038385
		CHANNELS 3 Zrotation Yrotation Xrotation
		JOINT upperback
		{
			OFFSET 0.004488 0.137956 0.026820
			CHANNELS 3 Zrotation Yrotation Xrotation
			JOINT chest
			{
				OFFSET -0.002265 0.056032 0.002855
				CHANNELS 3 Zrotation Yrotation Xrotation
				JOINT lowerneck
				{
					OFFSET -0.013390 0.211636 -0.033468
					CHANNELS 3 Zrotation Yrotation Xrotation
					JOINT upperneck
					{
						OFFSET 0.010113 0.088937 0.050410
						CHANNELS 3 Zrotation Yrotation Xrotation
						End Site
						{
							OFFSET 0.000000 0.000000 0.000000
						}
					}
				}
				JOINT lclavicle
				{
					OFFSET 0.071702 0.114000 -0.018898
					CHANNELS 3 Zrotation Yrotation Xrotation
					JOINT lshoulder
					{
						OFFSET 0.122921 0.045205 -0.019046
						CHANNELS 3 Zrotation Yrotation Xrotation
						JOINT lelbow
						{
							OFFSET 0.255332 -0.015649 -0.022946
							CHANNELS 3 Zrotation Yrotation Xrotation
							JOINT lwrist
							{
								OFFSET 0.265709 0.012698 -0.007375
								CHANNELS 3 Zrotation Yrotation Xrotation
								End Site
								{
									OFFSET 0.000000 0.000000 0.000000
								}
							}
						}
					}
				}
				JOINT rclavicle
				{
					OFFSET -0.082954 0.112472 -0.023707
					CHANNELS 3 Zrotation Yrotation Xrotation
					JOINT rshoulder
					{
						OFFSET -0.113228 0.046853 -0.008472
						CHANNELS 3 Zrotation Yrotation Xrotation
						JOINT relbow
						{
							OFFSET -0.260127 -0.014369 -0.031269
							CHANNELS 3 Zrotation Yrotation Xrotation
							JOINT rwrist
							{
								OFFSET -0.269108 0.006794 -0.006027
								CHANNELS 3 Zrotation Yrotation Xrotation
								End Site
								{
									OFFSET 0.000000 0.000000 0.000000
								}
							}
						}
					}
				}
			}
		}
	}
}
MOTION
Frames: 5
Frame Time: 0.033333
-1.553013 0.164756 0.965934 -173.485726 2.716365 91.595745 2.568892 -2.674502 4.078756 -5.505696 -7.386933 33.619448 -1.444313 8.884968 -8.624482 0.000000 -0.000000 0.000000 5.929423 6.259361 -16.161192 -5.398963 -2.371439 7.190919 -1.620595 -11.292124 -12.400287 0.000000 -0.000000 0.000000 -0.497004 -1.025261 0.417069 4.379078 -0.484351 2.386683 -0.017120 -1.975632 -0.408169 4.548969 -18.156680 -2.114492 -1.797549 -27.671428 22.601000 -21.327703 2.927372 5.262544 -62.060149 -10.433693 10.499702 15.575293 -26.043498 0.436365 -0.594840 -22.681016 2.184337 25.340745 2.578335 3.151719 57.318819 -1.742420 11.478292 -10.591022 15.580704 4.140130 4.943358 9.441362 -2.995914 
-1.548766 0.192564 0.968736 -173.912656 2.886052 90.912436 4.018033 -2.842388 -0.406306 -6.313605 -2.308585 43.713148 -2.288088 7.983498 -2.643704 0.000000 -0.000000 0.000000 7.041096 5.984949 -12.785569 -5.500882 -1.693742 6.152403 -3.017296 -10.471036 -13.483948 0.000000 -0.000000 0.000000 0.051745 0.178151 1.124719 4.403866 -0.665855 2.136711 -0.120484 -1.454468 -0.423283 3.706947 -19.010765 -2.303889 -1.401977 -27.195569 22.205770 -20.953601 2.363466 5.136610 -63.128471 -10.016186 9.776893 15.908464 -24.885416 -0.384102 -0.121913 -23.103382 2.871929 24.421659 3.496136 3.351205 58.180094 -1.881816 11.037397 -10.285706 17.097886 4.831749 5.161638 10.460662 -4.232444 
-1.545070 0.217565 0.969900 -173.741044 2.791526 90.528741 4.773999 -2.953147 -6.137094 -6.395209 0.655461 53.629543 -2.391504 7.393983 -2.177902 0.000000 -0.000000 0.000000 7.787179 4.641611 -9.751918 -5.136751 -0.759559 4.238593 -3.813806 -11.001880 -14.680900 0.000000 -0.000000 0.000000 0.147370 1.538279 1.894512 4.473839 -1.106036 1.827749 -0.060746 -1.189619 -0.233430 3.421762 -19.816733 -3.190776 -1.039012 -27.212623 22.155747 -20.986242 1.306850 5.484887 -63.508608 -9.774789 9.464074 16.059452 -24.825478 -0.705828 1.834795 -23.458270 1.628038 24.159518 4.599367 3.752840 57.791968 -1.647730 10.796124 -9.697494 19.743804 5.847773 5.277262 10.915955 -5.397283 
-1.541343 0.242072 0.971568 -174.037353 2.604049 89.658686 5.128027 -2.995334 -10.814612 -6.757151 2.963228 60.238723 -2.275885 6.538043 -5.047580 0.000000 -0.000000 0.000000 8.447837 3.045657 -5.976920 -5.240578 -0.111215 2.040873 -3.443760 -10.476985 -15.608571 0.000000 -0.000000 0.000000 0.267727 2.968207 3.629548 4.296305 -1.435420 0.971512 -0.020072 -0.781152 0.065867 3.613717 -20.241825 -4.085615 -0.898176 -27.377124 22.561608 -21.483722 0.908526 5.145274 -63.148136 -9.444305 9.256610 15.432695 -24.709221 -0.471018 3.317705 -24.387957 1.765615 24.815982 5.594400 3.955379 55.982830 -0.910810 10.867481 -8.753502 21.565595 7.172192 3.960958 11.618446 -4.901941 
-1.539649 0.265187 0.973728 -175.337368 1.638079 89.688194 4.483972 -2.627026 -15.818559 -6.568699 5.710727 63.190669 -1.887594 5.440965 -6.427215 0.000000 -0.000000 0.000000 7.924199 1.622915 -3.948727 -5.544758 0.636505 1.053846 -3.080424 -9.003091 -16.482368 0.000000 -0.000000 0.000000 -0.271385 4.523006 3.873099 4.014232 -1.396736 1.054550 -0.120381 -0.265032 -0.182089 3.925187 -20.352630 -3.686641 -0.374120 -27.655360 21.810353 -21.781013 1.108387 4.735863 -62.796202 -8.961572 9.043099 14.794198 -25.242407 1.060522 1.227285 -23.501104 2.312806 24.956310 5.978146 4.100203 55.127440 0.507896 10.610282 -9.126675 22.920660 7.935565 4.202616 11.791788 -3.815850 
